<svg width="161" height="38" viewBox="0 0 161 38" fill="none" xmlns="http://www.w3.org/2000/svg">
<path fill-rule="evenodd" clip-rule="evenodd" d="M1 21.0959C1 21.0959 11.1175 32.7104 18.1772 30.4578C25.2369 28.2051 41.6598 11.0235 50.2152 10.4471C67.5913 6.97817 65.7718 15.912 73.5952 14.547C78.8473 13.6306 86.0179 3.85539 96.5085 0.685547C103.443 0.685547 106.433 13.4819 113.259 16.3221C118.878 19.1871 122.317 15.1518 127.168 10.4471C132.315 5.4552 137.69 18.3968 143.48 18.9043C148.695 19.3613 160 11.7796 160 11.7796V37.123H1L1 21.0959Z" fill="url(#paint0_linear_31_1143)"/>
<path d="M1 21.4354C1 21.4354 11.1175 33.2445 18.1772 30.9541C25.2369 28.6637 47.2359 0.439697 67.0179 12.0555C77.3193 20.2694 85.8446 0.685547 96.2036 0.685547C106.563 0.685547 111.306 29.1694 125.205 12.0555C131.001 4.91845 136.197 17.1768 143.819 18.9449C148.381 20.0032 160 11.963 160 11.963" stroke="#6DD230" stroke-width="1.3"/>
<defs>
<linearGradient id="paint0_linear_31_1143" x1="411.073" y1="37.123" x2="411.073" y2="-114.389" gradientUnits="userSpaceOnUse">
<stop stop-color="#1E2745"/>
<stop offset="1" stop-color="#6DD230"/>
</linearGradient>
</defs>
</svg>
