<svg width="189" height="34" viewBox="0 0 189 34" fill="none" xmlns="http://www.w3.org/2000/svg">
<path d="M74.9883 15.625C74.9883 14.6875 74.8867 13.9453 74.6836 13.3984C74.4805 12.8516 74.1445 12.4375 73.6758 12.1562C73.207 11.875 72.5898 11.6953 71.8242 11.6172C71.0664 11.5391 70.125 11.5 69 11.5H63.7383C62.7383 11.5 61.8945 11.5312 61.207 11.5938C60.5273 11.6484 59.9648 11.7656 59.5195 11.9453C59.0742 12.125 58.7305 12.3828 58.4883 12.7188C58.2461 13.0547 58.0703 13.5 57.9609 14.0547C57.8516 14.6094 57.7891 15.293 57.7734 16.1055C57.7578 16.9102 57.75 17.875 57.75 19C57.75 20.125 57.7578 21.0938 57.7734 21.9062C57.7969 22.7109 57.8633 23.3906 57.9727 23.9453C58.082 24.5 58.2539 24.9453 58.4883 25.2812C58.7305 25.6172 59.0742 25.875 59.5195 26.0547C59.9648 26.2344 60.5273 26.3555 61.207 26.418C61.8945 26.4727 62.7383 26.5 63.7383 26.5H69C69.875 26.5 70.6289 26.4766 71.2617 26.4297C71.8945 26.3828 72.4336 26.2969 72.8789 26.1719C73.3242 26.0469 73.6836 25.875 73.957 25.6562C74.2305 25.4375 74.4414 25.1641 74.5898 24.8359C74.7461 24.5 74.8516 24.1016 74.9062 23.6406C74.9609 23.1719 74.9883 22.625 74.9883 22H77.2383C77.2383 22.75 77.1914 23.4297 77.0977 24.0391C77.0039 24.6406 76.8359 25.1797 76.5938 25.6562C76.3594 26.125 76.043 26.5312 75.6445 26.875C75.2461 27.2188 74.7422 27.5039 74.1328 27.7305C73.5234 27.9492 72.7969 28.1094 71.9531 28.2109C71.1094 28.3203 70.125 28.375 69 28.375H63.7383C62.3633 28.375 61.2031 28.2891 60.2578 28.1172C59.3203 27.9531 58.5469 27.7031 57.9375 27.3672C57.3281 27.0234 56.8555 26.5938 56.5195 26.0781C56.1914 25.5625 55.9492 24.957 55.793 24.2617C55.6445 23.5664 55.5586 22.7812 55.5352 21.9062C55.5117 21.0312 55.5 20.0625 55.5 19C55.5 17.9375 55.5117 16.9688 55.5352 16.0938C55.5586 15.2188 55.6445 14.4336 55.793 13.7383C55.9492 13.043 56.1914 12.4375 56.5195 11.9219C56.8555 11.4062 57.3281 10.9805 57.9375 10.6445C58.5469 10.3008 59.3203 10.0469 60.2578 9.88281C61.2031 9.71094 62.3633 9.625 63.7383 9.625H69C70.125 9.625 71.1094 9.67969 71.9531 9.78906C72.7969 9.89062 73.5234 10.0508 74.1328 10.2695C74.7422 10.4805 75.2461 10.75 75.6445 11.0781C76.043 11.4062 76.3594 11.793 76.5938 12.2383C76.8359 12.6836 77.0039 13.1875 77.0977 13.75C77.1914 14.3125 77.2383 14.9375 77.2383 15.625H74.9883ZM91.875 18.8945C91.875 18.332 91.832 17.8672 91.7461 17.5C91.668 17.125 91.4766 16.8281 91.1719 16.6094C90.8672 16.3828 90.4141 16.2266 89.8125 16.1406C89.2188 16.0469 88.4062 16 87.375 16C86.3672 16 85.5469 16.0898 84.9141 16.2695C84.2812 16.4414 83.7852 16.6875 83.4258 17.0078C83.0664 17.3281 82.8203 17.7109 82.6875 18.1562C82.5625 18.6016 82.5 19.0977 82.5 19.6445V28H80.25V14.5H82.5V16.6445C82.5781 16.4023 82.7227 16.1367 82.9336 15.8477C83.1445 15.5508 83.4648 15.2773 83.8945 15.0273C84.3242 14.7695 84.8789 14.5547 85.5586 14.3828C86.2461 14.2109 87.1016 14.125 88.125 14.125C89.2969 14.125 90.25 14.2305 90.9844 14.4414C91.7188 14.6445 92.2891 14.9492 92.6953 15.3555C93.1094 15.7539 93.3867 16.25 93.5273 16.8438C93.6758 17.4375 93.75 18.1211 93.75 18.8945H91.875ZM101.625 28H102.375C102.25 28.25 102.137 28.4883 102.035 28.7148C101.941 28.9414 101.824 29.1523 101.684 29.3477C101.543 29.543 101.367 29.7188 101.156 29.875C100.945 30.0312 100.664 30.1641 100.312 30.2734C99.9688 30.3906 99.5391 30.4766 99.0234 30.5312C98.5078 30.5938 97.875 30.625 97.125 30.625V32.5C98 32.5 98.7578 32.457 99.3984 32.3711C100.039 32.293 100.59 32.1758 101.051 32.0195C101.52 31.8711 101.914 31.6875 102.234 31.4688C102.555 31.25 102.832 31 103.066 30.7188C103.301 30.4453 103.508 30.1406 103.688 29.8047C103.875 29.4766 104.062 29.125 104.25 28.75L104.625 28L111.375 14.5H108.75L103.125 26.5L97.125 14.5H94.5L101.625 28ZM121.875 14.125C123.375 14.125 124.648 14.2383 125.695 14.4648C126.742 14.6914 127.594 15.0781 128.25 15.625C128.906 16.1719 129.383 16.9062 129.68 17.8281C129.977 18.7422 130.125 19.8906 130.125 21.2734C130.125 22.6328 129.977 23.7617 129.68 24.6602C129.383 25.5586 128.906 26.2734 128.25 26.8047C127.594 27.3359 126.742 27.7109 125.695 27.9297C124.648 28.1484 123.375 28.2578 121.875 28.2578C120.805 28.2578 119.91 28.1992 119.191 28.082C118.473 27.9648 117.883 27.8203 117.422 27.6484C116.969 27.4688 116.621 27.2773 116.379 27.0742C116.145 26.8711 115.977 26.6797 115.875 26.5V32.5H113.625V14.5H115.875V15.7539C115.977 15.5977 116.145 15.4258 116.379 15.2383C116.621 15.043 116.969 14.8633 117.422 14.6992C117.883 14.5352 118.473 14.3984 119.191 14.2891C119.91 14.1797 120.805 14.125 121.875 14.125ZM121.875 16C121.125 16 120.457 16.0195 119.871 16.0586C119.285 16.0977 118.77 16.1797 118.324 16.3047C117.879 16.4219 117.5 16.5977 117.188 16.832C116.883 17.0586 116.633 17.3672 116.438 17.7578C116.242 18.1406 116.098 18.6172 116.004 19.1875C115.918 19.7578 115.875 20.4414 115.875 21.2383C115.875 22.043 115.918 22.7344 116.004 23.3125C116.098 23.8906 116.242 24.375 116.438 24.7656C116.633 25.1484 116.883 25.457 117.188 25.6914C117.5 25.918 117.879 26.0938 118.324 26.2188C118.77 26.3359 119.285 26.4141 119.871 26.4531C120.457 26.4844 121.125 26.5 121.875 26.5C122.75 26.5 123.504 26.4727 124.137 26.418C124.777 26.3633 125.32 26.2656 125.766 26.125C126.211 25.9844 126.57 25.7891 126.844 25.5391C127.125 25.2891 127.34 24.9727 127.488 24.5898C127.645 24.1992 127.746 23.7344 127.793 23.1953C127.848 22.6484 127.875 22.0078 127.875 21.2734C127.875 20.5391 127.848 19.8984 127.793 19.3516C127.746 18.8047 127.645 18.3359 127.488 17.9453C127.34 17.5547 127.125 17.2344 126.844 16.9844C126.57 16.7344 126.211 16.5352 125.766 16.3867C125.32 16.2383 124.777 16.1367 124.137 16.082C123.504 16.0273 122.75 16 121.875 16ZM145.875 22C145.875 23.1484 145.781 24.1094 145.594 24.8828C145.406 25.6484 145.09 26.2617 144.645 26.7227C144.207 27.1836 143.629 27.5117 142.91 27.707C142.191 27.9023 141.305 28 140.25 28C139.227 28 138.367 27.9219 137.672 27.7656C136.977 27.6094 136.414 27.3438 135.984 26.9688C135.555 26.5938 135.246 26.0938 135.059 25.4688C134.871 24.8438 134.777 24.0625 134.777 23.125V16.3516H132V14.5H134.777V10.8086H137.027V14.5H145.5V16.3516H137.027V23.125C137.027 23.875 137.082 24.4531 137.191 24.8594C137.309 25.2656 137.492 25.5625 137.742 25.75C137.992 25.9375 138.32 26.0469 138.727 26.0781C139.141 26.1094 139.645 26.125 140.238 26.125C140.707 26.125 141.125 26.1172 141.492 26.1016C141.867 26.0859 142.191 26.0391 142.465 25.9609C142.746 25.875 142.984 25.75 143.18 25.5859C143.375 25.4141 143.531 25.1758 143.648 24.8711C143.773 24.5664 143.863 24.1836 143.918 23.7227C143.973 23.2539 144 22.6797 144 22H145.875ZM149.625 14.5H151.875V28H149.625V14.5ZM151.875 12.25H149.625V10H151.875V12.25ZM155.625 10H157.875V19.8438H158.625L166.875 14.5H170.25L160.688 20.7812L170.625 28H167.25L158.625 21.5312H157.875V28H155.625V10ZM170.625 21.1562C170.625 19.7734 170.773 18.6289 171.07 17.7227C171.367 16.8164 171.844 16.0977 172.5 15.5664C173.156 15.0352 174.008 14.6641 175.055 14.4531C176.102 14.2344 177.375 14.125 178.875 14.125C180.375 14.125 181.648 14.2344 182.695 14.4531C183.742 14.6641 184.594 15.0352 185.25 15.5664C185.906 16.0977 186.383 16.8164 186.68 17.7227C186.977 18.6289 187.125 19.7734 187.125 21.1562C187.125 22.5391 186.977 23.6875 186.68 24.6016C186.383 25.5156 185.906 26.2422 185.25 26.7812C184.594 27.3203 183.742 27.7031 182.695 27.9297C181.648 28.1484 180.375 28.2578 178.875 28.2578C177.375 28.2578 176.102 28.1484 175.055 27.9297C174.008 27.7031 173.156 27.3203 172.5 26.7812C171.844 26.2422 171.367 25.5156 171.07 24.6016C170.773 23.6875 170.625 22.5391 170.625 21.1562ZM172.875 21.1562C172.875 21.9062 172.902 22.5586 172.957 23.1133C173.012 23.668 173.113 24.1445 173.262 24.543C173.418 24.9414 173.633 25.2656 173.906 25.5156C174.18 25.7656 174.539 25.9648 174.984 26.1133C175.43 26.2617 175.969 26.3633 176.602 26.418C177.242 26.4727 178 26.5 178.875 26.5C179.625 26.5 180.293 26.4844 180.879 26.4531C181.473 26.4141 181.988 26.332 182.426 26.207C182.871 26.082 183.25 25.9062 183.562 25.6797C183.875 25.4453 184.125 25.1289 184.312 24.7305C184.508 24.332 184.648 23.8438 184.734 23.2656C184.828 22.6797 184.875 21.9766 184.875 21.1562C184.875 20.3516 184.828 19.668 184.734 19.1055C184.648 18.5352 184.508 18.0586 184.312 17.6758C184.125 17.293 183.875 16.9922 183.562 16.7734C183.25 16.5469 182.871 16.3789 182.426 16.2695C181.988 16.1523 181.473 16.0781 180.879 16.0469C180.293 16.0156 179.625 16 178.875 16C178.125 16 177.453 16.0156 176.859 16.0469C176.273 16.0781 175.758 16.1523 175.312 16.2695C174.875 16.3789 174.5 16.5469 174.188 16.7734C173.875 16.9922 173.621 17.293 173.426 17.6758C173.238 18.0586 173.098 18.5352 173.004 19.1055C172.918 19.668 172.875 20.3516 172.875 21.1562Z" fill="white"/>
<g clip-path="url(#clip0_11_2047)">
<path d="M42.7584 16.4822C42.7584 12.1109 40.9564 7.91855 37.7488 4.82753C34.5412 1.73652 30.1909 5.73235e-07 25.6547 0C21.1185 -5.73233e-07 16.7681 1.73652 13.5606 4.82753C10.353 7.91855 8.55096 12.1109 8.55096 16.4822H13.896C15.6671 16.4822 17.0484 15.0519 17.6972 13.4637C18.1231 12.4209 18.7694 11.4627 19.6076 10.6549C21.2114 9.10937 23.3866 8.24111 25.6547 8.24111C27.9228 8.24111 30.098 9.10937 31.7018 10.6549C33.3056 12.2004 34.2065 14.2966 34.2065 16.4822H42.7584Z" fill="#3772FF"/>
<path d="M42.2505 16.9822C41.9762 25.5614 34.6678 32.4643 25.6547 32.4643C24.9055 32.4643 24.168 32.4166 23.4454 32.3241C23.5756 32.2756 23.7053 32.2256 23.8344 32.1741L23.8344 32.1741C25.9688 31.3221 27.9094 30.0729 29.5449 28.4969C31.1803 26.9208 32.4788 25.0488 33.3649 22.9871C34.1849 21.0794 34.6369 19.0443 34.6999 16.9822H42.2505Z" fill="white" stroke="#08071B"/>
<path d="M0 16.4822C-3.21323e-07 18.6467 0.442401 20.79 1.30194 22.7897C2.16149 24.7894 3.42133 26.6064 5.00957 28.137C6.59779 29.6674 8.48329 30.8815 10.5584 31.7098C12.6335 32.5381 14.8576 32.9644 17.1037 32.9644C19.3498 32.9644 21.5739 32.5381 23.649 31.7098C25.7241 30.8815 27.6096 29.6674 29.1979 28.137C30.7861 26.6064 32.0459 24.7894 32.9055 22.7897C33.765 20.79 34.2075 18.6467 34.2075 16.4822H28.8625C27.0913 16.4822 25.71 17.9125 25.0613 19.5006C25.0429 19.5459 25.0239 19.5909 25.0046 19.636C24.5748 20.6358 23.9449 21.5444 23.1508 22.3096C22.3567 23.0748 21.4139 23.6819 20.3764 24.0961C19.3389 24.5102 18.2268 24.7234 17.1037 24.7234C15.9807 24.7234 14.8686 24.5102 13.8311 24.0961C12.7935 23.6819 11.8508 23.0748 11.0566 22.3096C10.2625 21.5444 9.63261 20.6358 9.20284 19.636C8.77306 18.6361 8.55186 17.5644 8.55186 16.4822H0Z" fill="white"/>
<path d="M0.509874 15.9822C0.784156 7.40294 8.09245 0.5 17.1055 0.5C17.8544 0.5 18.5914 0.547685 19.3136 0.640035C17.0485 1.48382 14.9661 2.77888 13.2137 4.4675L13.2137 4.46751C10.0328 7.53289 8.19078 11.6538 8.05878 15.9822H0.509874Z" fill="#3772FF" stroke="#08071B"/>
</g>
<defs>
<clipPath id="clip0_11_2047">
<rect width="43" height="34" fill="white"/>
</clipPath>
</defs>
</svg>
